<svg width="1200" height="800" viewBox="0 0 1200 800" fill="none"
    xmlns="http://www.w3.org/2000/svg">
    <path d="M648.5 168.5H947.5V379.391H648.5V168.5Z" fill="white" stroke="black"/>
    <path d="M653.5 174.5H942.5V373.5H653.5V174.5Z" fill="white" stroke="black"/>
    <line x1="648.616" y1="379.68" x2="653.616" y2="373.68" stroke="black"/>
    <line y1="-0.5" x2="7.81025" y2="-0.5" transform="matrix(0.640184 0.768221 0.768221 -0.640184 649 168)" stroke="black"/>
    <line y1="-0.5" x2="7.81025" y2="-0.5" transform="matrix(0.640184 0.768221 0.768221 -0.640184 943 373)" stroke="black"/>
    <line x1="942.616" y1="174.68" x2="947.616" y2="168.68" stroke="black"/>
    <path d="M685 203.118C685 203.118 689.916 221.03 694.075 221.423C696.189 221.623 697.941 207.097 699.517 208.013C703.113 210.102 706.414 217.882 708.38 217.567C711.593 217.053 710.71 211.213 713.949 210.951C717.051 210.7 717.262 215.523 720.33 216.088C723.58 216.686 725.067 213.822 728.294 213.107C734.932 211.636 745.621 214.412 745.621 214.412" stroke="black"/>
    <path d="M829.184 238.91C829.184 238.91 833.91 231.287 838.063 231.163C840.175 231.1 842.08 237.343 843.646 236.967C847.22 236.109 850.437 232.811 852.407 232.967C855.624 233.221 854.803 235.714 858.045 235.861C861.149 236.001 861.308 233.937 864.37 233.727C867.613 233.505 869.13 234.748 872.364 235.089C879.016 235.789 889.674 234.713 889.674 234.713" stroke="black"/>
    <path d="M836 317.91C836 317.91 838.704 310.25 841.027 310.092C842.208 310.011 843.222 316.237 844.101 315.849C846.106 314.963 847.931 311.638 849.031 311.778C850.828 312.006 850.348 314.505 852.159 314.625C853.893 314.74 853.999 312.675 855.713 312.44C857.528 312.192 858.365 313.422 860.17 313.736C863.884 314.383 863 313 863 313" stroke="black"/>
    <path d="M742.527 278.091C743.709 278.011 744.723 284.237 745.601 283.849C747.606 282.962 747.9 280.301 749 280.44M754 287.5C752.287 287.735 750.734 280.555 749 280.44M754 287.5C755.815 287.251 752.195 287.186 754 287.5ZM749 280.44C750.797 280.668 747.189 280.32 749 280.44Z" stroke="black"/>
    <path d="M829.192 252.164C829.192 252.164 828.275 246.067 831.524 245.988C833.177 245.947 837.753 254.586 838.978 254.328C841.772 253.739 842.9 248.489 844.441 248.6C846.959 248.782 848.956 252.86 851.493 252.967C853.922 253.07 854.564 248.263 856.959 248.122C859.496 247.973 860.303 250.668 862.834 250.91C868.04 251.407 876.914 249.552 876.914 249.552" stroke="black"/>
    <path d="M878 301.772C878 301.772 824.549 297.785 822.912 301.772C819.873 309.171 820.904 317.321 822.912 322.105C824.919 326.889 872.113 329.68 874.215 326.889C876.318 324.098 872.113 306.157 872.113 306.157" stroke="black"/>
    <path d="M724 294.228C724 294.228 774.951 298.215 776.588 294.228C779.627 286.829 778.596 278.679 776.588 273.895C774.581 269.111 727.387 266.32 725.285 269.111C723.182 271.902 727.5 300 727.5 300" stroke="black"/>
    <path d="M751.5 301C751.5 301 750.861 313 763.5 313C769.5 313 778.677 305.003 785.5 309.5C789.502 312.137 792.5 322.5 801.001 323.5C806 322.5 810.5 318.5 810.5 318.5" stroke="black"/>
    <path d="M810.832 325.719C810.832 325.719 813.637 318.482 813.249 317.433C812.861 316.385 804.909 315.513 804.909 315.513" stroke="black"/>
</svg>
    