<svg width="800" height="800" viewBox="0 0 800 800" fill="none"
    xmlns="http://www.w3.org/2000/svg">
    <path d="M448.5 168.5H747.5V379.391H448.5V168.5Z" fill="white" stroke="black"/>
    <path d="M453.5 174.5H742.5V373.5H453.5V174.5Z" fill="white" stroke="black"/>
    <line x1="448.616" y1="379.68" x2="453.616" y2="373.68" stroke="black"/>
    <line y1="-0.5" x2="7.81025" y2="-0.5" transform="matrix(0.640184 0.768221 0.768221 -0.640184 449 168)" stroke="black"/>
    <line y1="-0.5" x2="7.81025" y2="-0.5" transform="matrix(0.640184 0.768221 0.768221 -0.640184 743 373)" stroke="black"/>
    <line x1="742.616" y1="174.68" x2="747.616" y2="168.68" stroke="black"/>
    <path d="M485 203.118C485 203.118 489.916 221.03 494.075 221.423C496.189 221.623 497.941 207.097 499.517 208.013C503.113 210.102 506.414 217.882 508.38 217.567C511.593 217.053 510.71 211.213 513.949 210.951C517.051 210.7 517.262 215.523 520.33 216.088C523.58 216.686 525.067 213.822 528.294 213.107C534.932 211.636 545.621 214.412 545.621 214.412" stroke="black"/>
    <path d="M629.184 238.91C629.184 238.91 633.91 231.287 638.063 231.163C640.175 231.1 642.08 237.343 643.646 236.967C647.22 236.109 650.437 232.811 652.407 232.967C655.624 233.221 654.803 235.714 658.045 235.861C661.149 236.001 661.308 233.937 664.37 233.727C667.613 233.505 669.13 234.748 672.364 235.089C679.016 235.789 689.674 234.713 689.674 234.713" stroke="black"/>
    <path d="M636 317.91C636 317.91 638.704 310.25 641.027 310.092C642.208 310.011 643.222 316.237 644.101 315.849C646.106 314.963 647.931 311.638 649.031 311.778C650.828 312.006 650.348 314.505 652.159 314.625C653.893 314.74 653.999 312.675 655.713 312.44C657.528 312.192 658.365 313.422 660.17 313.736C663.884 314.383 663 313 663 313" stroke="black"/>
    <path d="M542.527 278.091C543.709 278.011 544.723 284.237 545.601 283.849C547.606 282.962 547.9 280.301 549 280.44M554 287.5C552.287 287.735 550.734 280.555 549 280.44M554 287.5C555.815 287.251 552.195 287.186 554 287.5ZM549 280.44C550.797 280.668 547.189 280.32 549 280.44Z" stroke="black"/>
    <path d="M629.192 252.164C629.192 252.164 628.275 246.067 631.524 245.988C633.177 245.947 637.753 254.586 638.978 254.328C641.772 253.739 642.9 248.489 644.441 248.6C646.959 248.782 648.956 252.86 651.493 252.967C653.922 253.07 654.564 248.263 656.959 248.122C659.496 247.973 660.303 250.668 662.834 250.91C668.04 251.407 676.914 249.552 676.914 249.552" stroke="black"/>
    <path d="M678 301.772C678 301.772 624.549 297.785 622.912 301.772C619.873 309.171 620.904 317.321 622.912 322.105C624.919 326.889 672.113 329.68 674.215 326.889C676.318 324.098 672.113 306.157 672.113 306.157" stroke="black"/>
    <path d="M524 294.228C524 294.228 574.951 298.215 576.588 294.228C579.627 286.829 578.596 278.679 576.588 273.895C574.581 269.111 527.387 266.32 525.285 269.111C523.182 271.902 527.5 300 527.5 300" stroke="black"/>
    <path d="M551.5 301C551.5 301 550.861 313 563.5 313C569.5 313 578.677 305.003 585.5 309.5C589.502 312.137 592.5 322.5 601.001 323.5C606 322.5 610.5 318.5 610.5 318.5" stroke="black"/>
    <path d="M610.832 325.719C610.832 325.719 613.637 318.482 613.249 317.433C612.861 316.385 604.909 315.513 604.909 315.513" stroke="black"/>
</svg>
    