<svg width="800" height="800" viewBox="0 0 800 800" fill="none"
    xmlns="http://www.w3.org/2000/svg">
    <path d="M609 516.607H637V548.857C637 552.723 633.866 555.857 630 555.857H616C612.134 555.857 609 552.723 609 548.857V516.607Z" fill="black" stroke="black" stroke-width="2"/>
    <path d="M637 521.366C637 521.366 648 519.822 648 531.323C648 542.415 637.25 546.967 637.25 546.967" stroke="black" stroke-width="4"/>
    <path d="M615.52 512.249C615.52 512.249 620.272 508.881 621.263 505.787C622.453 502.071 617.929 498.838 619.354 495.207C620.21 493.023 623.399 490.482 623.399 490.482" stroke="black"/>
    <path d="M628.247 510.43C628.247 510.43 631.912 506.697 632.999 503.334C634.306 499.296 631.058 495.908 632.6 491.955C633.526 489.577 636.819 486.748 636.819 486.748" stroke="black"/>
</svg>
    