<svg width="1200" height="800" viewBox="0 0 1200 800" fill="none"
    xmlns="http://www.w3.org/2000/svg">
    <path d="M809 516.607H837V548.857C837 552.723 833.866 555.857 830 555.857H816C812.134 555.857 809 552.723 809 548.857V516.607Z" fill="black" stroke="black" stroke-width="2"/>
    <path d="M837 521.366C837 521.366 848 519.822 848 531.323C848 542.415 837.25 546.967 837.25 546.967" stroke="black" stroke-width="4"/>
    <path d="M815.52 512.249C815.52 512.249 820.272 508.881 821.263 505.787C822.453 502.071 817.929 498.838 819.354 495.207C820.21 493.023 823.399 490.482 823.399 490.482" stroke="black"/>
    <path d="M828.247 510.43C828.247 510.43 831.912 506.697 832.999 503.334C834.306 499.296 831.058 495.908 832.6 491.955C833.526 489.577 836.819 486.748 836.819 486.748" stroke="black"/>
</svg>
    