<svg width="1200" height="800" viewBox="0 0 1200 800" fill="none"
    xmlns="http://www.w3.org/2000/svg">
    <path d="M643 542.192L708.65 545.518L773 542.192V547.444H643V542.192Z" fill="black"/>
    <path d="M742.582 533.505L770.267 541.887C770.261 541.887 770.255 541.888 770.249 541.888C768.518 542.013 766.042 542.191 763.061 542.408C757.099 542.841 749.116 543.426 741.031 544.032C732.947 544.638 724.759 545.266 718.39 545.785C715.205 546.044 712.474 546.277 710.436 546.466C708.418 546.653 707.039 546.801 706.597 546.894C706.457 546.924 706.087 546.944 705.453 546.938C704.842 546.933 704.033 546.905 703.054 546.858C701.096 546.763 698.473 546.59 695.413 546.363C689.292 545.908 681.434 545.238 673.676 544.547C665.917 543.855 658.261 543.142 652.543 542.602C649.684 542.332 647.311 542.105 645.652 541.945C645.623 541.943 645.595 541.94 645.567 541.937L673.417 533.505L673.665 533.521L674.626 533.584C675.455 533.637 676.644 533.714 678.083 533.807C680.962 533.991 684.841 534.238 688.843 534.484C696.835 534.976 705.354 535.47 707.343 535.47C709.332 535.47 718.179 534.976 726.499 534.484C730.665 534.238 734.709 533.991 737.71 533.807C739.211 533.714 740.451 533.638 741.317 533.584L742.319 533.521L742.582 533.505L742.582 533.505Z" stroke="black"/>
    <path d="M707.344 545.475V535.266" stroke="black"/>
</svg>
    