<svg width="800" height="800" viewBox="0 0 800 800" fill="none"
    xmlns="http://www.w3.org/2000/svg">
    <path d="M443 542.192L508.65 545.518L573 542.192V547.444H443V542.192Z" fill="black"/>
    <path d="M570.267 541.887C570.261 541.887 570.255 541.888 570.249 541.888C568.518 542.013 566.042 542.191 563.061 542.408C557.099 542.841 549.116 543.426 541.031 544.032C532.947 544.638 524.759 545.266 518.39 545.785C515.205 546.044 512.474 546.277 510.436 546.466C508.418 546.653 507.039 546.801 506.597 546.894C506.457 546.924 506.087 546.944 505.453 546.938C504.842 546.933 504.033 546.905 503.054 546.858C501.096 546.763 498.473 546.59 495.413 546.363C489.292 545.908 481.434 545.238 473.676 544.547C465.917 543.855 458.261 543.142 452.543 542.602C449.684 542.332 447.311 542.105 445.652 541.945C445.623 541.943 445.595 541.94 445.567 541.937L473.417 533.505L473.665 533.521L474.626 533.584C475.455 533.637 476.644 533.714 478.083 533.807C480.962 533.991 484.841 534.238 488.843 534.484C496.835 534.976 505.354 535.47 507.343 535.47C509.332 535.47 518.179 534.976 526.499 534.484C530.665 534.238 534.709 533.991 537.71 533.807C539.211 533.714 540.451 533.638 541.317 533.584L542.319 533.521L542.582 533.505L542.582 533.505L570.267 541.887Z" stroke="black"/>
    <path d="M507.344 545.475V535.266" stroke="black"/>
</svg>
