<svg width="1200" height="800" viewBox="0 0 1200 800" fill="none" xmlns="http://www.w3.org/2000/svg">
    <path d="M372.653 235.5H392.518C392.526 235.289 392.535 235.009 392.546 234.66C392.572 233.782 392.606 232.47 392.636 230.734C392.695 227.262 392.737 222.094 392.665 215.318C392.522 201.765 391.927 181.775 390.119 156.035C389.089 141.381 388.101 122.426 387.078 102.813C386.304 87.9654 385.51 72.74 384.663 58.7176C383.68 42.4371 382.627 27.776 381.452 17.188C380.864 11.8912 380.247 7.62984 379.597 4.69911C379.271 3.22973 378.942 2.12132 378.616 1.39008C378.451 1.02263 378.3 0.779311 378.171 0.63535C378.065 0.516899 378.007 0.501585 377.998 0.500001C377.972 0.500081 377.899 0.50433 377.777 0.674353C377.646 0.856359 377.508 1.16712 377.378 1.64252C377.12 2.58725 376.935 4.02018 376.797 5.93429C376.567 9.12728 376.476 13.5575 376.363 19.0754C376.341 20.1582 376.317 21.2829 376.292 22.4483C375.985 36.6412 375.371 56.7878 372.241 80.5653C369.958 97.9022 366.503 148.995 371.241 187.439C373.616 206.707 373.932 218.86 373.651 226.207C373.511 229.88 373.221 232.354 372.964 233.917C372.848 234.62 372.739 235.139 372.653 235.5ZM377.996 0.49985C377.996 0.499876 377.997 0.499948 377.997 0.499982L377.996 0.49985Z" fill="white" stroke="black"/>
    <path d="M376.644 233.954C376.582 234.649 376.524 235.155 376.479 235.5H386.404C386.407 235.299 386.412 235.036 386.418 234.711C386.432 233.863 386.449 232.594 386.465 230.916C386.496 227.56 386.518 222.565 386.48 216.017C386.405 202.919 386.094 183.602 385.147 158.731C384.608 144.574 384.09 126.266 383.555 107.321C383.15 92.9764 382.734 78.2659 382.291 64.7144C381.776 48.9855 381.224 34.8169 380.609 24.5821C380.301 19.463 379.977 15.3372 379.636 12.4949C379.465 11.0707 379.291 9.98565 379.116 9.26358C379.093 9.17059 379.071 9.08539 379.05 9.00767C379.018 9.15597 378.987 9.33041 378.957 9.53276C378.819 10.4653 378.721 11.8667 378.649 13.718C378.529 16.8086 378.481 21.0955 378.422 26.4261C378.41 27.4719 378.398 28.5578 378.385 29.6828C378.224 43.3922 377.903 62.8468 376.265 85.8068C375.069 102.566 373.259 151.947 375.741 189.111C376.984 207.718 377.149 219.448 377.002 226.53C376.929 230.072 376.777 232.454 376.644 233.954Z" fill="white" stroke="black"/>
    <path d="M375 174.338L376.31 172L378 175L380 172L382 175L384 172L385.5 174" stroke="black"/>
    <path d="M377 222.662L378.247 225L379.857 222L381.762 225L383.667 222L385.571 225L387 223" stroke="black"/>
    <path d="M377 212.662L378.122 215L379.571 212L381.286 215L383 212L384.714 215L386 213" stroke="black"/>
    <path d="M376.5 82H376.873L378 79L379.333 82L380.667 79L382 82L383 80" stroke="black"/>
    <path d="M376.873 74L378 71L379.333 74L380.667 71L382 74" stroke="black"/>
    <path d="M378 66H378.001L378.737 63L379.607 66L380.477 63L381.347 66L382 64" stroke="black"/>
    <path d="M378 56L378.736 53L379.607 56L380.477 53L381.347 56L382 54" stroke="black"/>
    <path d="M378.5 39L380 36L380.714 39L381 37" stroke="black"/>
    <path d="M378 43.5L378.375 43L379.875 46L381 44" stroke="black"/>
    <path d="M378.5 26L379.5 28L380.5 25.5" stroke="black"/>
    <path d="M375.5 96L376.122 97L377.571 94L379.286 97L381 94L382.714 97L383 96" stroke="black"/>
    <path d="M375 107.662L376.122 110L377.571 107L379.286 110L381 107L382.714 110L383.5 109" stroke="black"/>
    <path d="M375 124.338L376.122 122L377.571 125L379.286 122L381 125L382.714 122L384 124" stroke="black"/>
    <path d="M375 132.662L376.122 135L377.571 132L379.286 135L381 132L382.714 135L384 133" stroke="black"/>
    <path d="M375 142.662L376.122 145L377.571 142L379.286 145L381 142L382.714 145L384 143" stroke="black"/>
    <path d="M377 201.338L378.247 199L379.857 202L381.762 199L383.667 202L385.571 199L386.5 200" stroke="black"/>
    <path d="M376 189.662L377.247 192L378.857 189L380.762 192L382.667 189L384.571 192L386 190" stroke="black"/>
    <path d="M375 157.338L376.247 155L377.857 158L379.762 155L381.667 158L383.571 155L385 157" stroke="black"/>
    <path d="M375 179.662L376.31 182L378 179L380 182L382 179L384 182L385.5 180" stroke="black"/>
    <path d="M375 162.662L376.247 165L377.857 162L379.762 165L381.667 162L383.571 165L385 163" stroke="black"/>
    <path d="M337.685 235.5C337.677 235.298 337.668 235.033 337.658 234.704C337.631 233.856 337.597 232.589 337.567 230.912C337.508 227.558 337.467 222.566 337.538 216.019C337.681 202.926 338.276 183.615 340.085 158.748C341.114 144.59 342.103 126.278 343.125 107.329C343.9 92.9846 344.694 78.2756 345.54 64.7293C346.523 49.0006 347.576 34.8373 348.751 24.6091C349.339 19.4922 349.956 15.3767 350.606 12.5471C350.931 11.1283 351.26 10.0597 351.585 9.35579C351.749 9.00222 351.899 8.76907 352.027 8.63147C352.089 8.56441 352.137 8.53029 352.167 8.51393C352.182 8.50608 352.191 8.50277 352.197 8.50138C352.202 8.50005 352.204 8.5 352.205 8.5C352.237 8.5 352.311 8.50605 352.432 8.66803C352.561 8.84111 352.697 9.13811 352.827 9.5956C353.084 10.5051 353.269 11.8867 353.407 13.7356C353.636 16.8194 353.727 21.0982 353.841 26.4291C353.863 27.4753 353.886 28.562 353.911 29.6881C354.218 43.4002 354.832 62.8654 357.963 85.8387C360.245 102.586 363.7 151.944 358.963 189.081C356.588 207.697 356.272 219.44 356.552 226.54C356.693 230.09 356.983 232.482 357.24 233.993C357.353 234.657 357.46 235.152 357.545 235.5H337.685Z" fill="white" stroke="black"/>
    <path d="M353.722 235.5H343.799C343.796 235.308 343.791 235.059 343.786 234.755C343.772 233.935 343.754 232.709 343.738 231.088C343.707 227.845 343.686 223.021 343.723 216.694C343.798 204.041 344.11 185.379 345.057 161.351C345.596 147.674 346.113 129.987 346.648 111.684C347.054 97.8253 347.47 83.6135 347.913 70.5219C348.427 55.3261 348.979 41.6382 349.595 31.7508C349.902 26.8055 350.226 22.8204 350.567 20.0754C350.739 18.6999 350.912 17.6531 351.087 16.9574C351.109 16.866 351.132 16.7824 351.154 16.7065C351.186 16.8494 351.217 17.0182 351.247 17.2146C351.385 18.1137 351.482 19.4659 351.554 21.2543C351.675 24.2396 351.722 28.3806 351.782 33.5305C351.793 34.5408 351.806 35.5901 351.819 36.677C351.979 49.9219 352.301 68.7178 353.939 90.9005C355.134 107.091 356.944 154.796 354.462 190.698C353.22 208.676 353.055 220.008 353.201 226.852C353.275 230.274 353.426 232.576 353.56 234.026C353.621 234.684 353.678 235.167 353.722 235.5Z" fill="white" stroke="black"/>
    <path d="M355.203 176.428L353.894 174.169L352.203 177.068L350.203 174.169L348.203 177.068L346.203 174.169L344.703 176.102" stroke="black"/>
    <path d="M353.203 223.114L351.956 225.373L350.346 222.475L348.441 225.373L346.537 222.475L344.632 225.373L343.203 223.441" stroke="black"/>
    <path d="M353.203 213.453L352.081 215.712L350.632 212.814L348.918 215.712L347.203 212.814L345.489 215.712L344.203 213.78" stroke="black"/>
    <path d="M353.703 87.2203H353.33L352.203 84.322L350.87 87.2203L349.537 84.322L348.203 87.2203L347.203 85.2881" stroke="black"/>
    <path d="M353.33 79.4915L352.203 76.5932L350.87 79.4915L349.537 76.5932L348.203 79.4915" stroke="black"/>
    <path d="M352.203 71.7627H352.202L351.467 68.8644L350.596 71.7627L349.726 68.8644L348.856 71.7627L348.203 69.8305" stroke="black"/>
    <path d="M352.203 62.1017L351.467 59.2034L350.597 62.1017L349.726 59.2034L348.856 62.1017L348.203 60.1695" stroke="black"/>
    <path d="M351.703 45.678L350.203 42.7797L349.489 45.678L349.203 43.7458" stroke="black"/>
    <path d="M352.203 50.0254L351.828 49.5424L350.328 52.4407L349.203 50.5085" stroke="black"/>
    <path d="M351.703 33.1186L350.703 35.0508L349.703 32.6356" stroke="black"/>
    <path d="M354.703 100.746L354.081 101.712L352.632 98.8136L350.918 101.712L349.203 98.8136L347.489 101.712L347.203 100.746" stroke="black"/>
    <path d="M355.203 112.013L354.081 114.271L352.632 111.373L350.918 114.271L349.203 111.373L347.489 114.271L346.703 113.305" stroke="black"/>
    <path d="M355.203 128.123L354.081 125.864L352.632 128.763L350.918 125.864L349.203 128.763L347.489 125.864L346.203 127.797" stroke="black"/>
    <path d="M355.203 136.165L354.081 138.424L352.632 135.525L350.918 138.424L349.203 135.525L347.489 138.424L346.203 136.492" stroke="black"/>
    <path d="M355.203 145.826L354.081 148.085L352.632 145.186L350.918 148.085L349.203 145.186L347.489 148.085L346.203 146.153" stroke="black"/>
    <path d="M353.203 202.513L351.956 200.254L350.346 203.153L348.441 200.254L346.537 203.153L344.632 200.254L343.703 201.22" stroke="black"/>
    <path d="M354.203 191.233L352.956 193.492L351.346 190.593L349.441 193.492L347.537 190.593L345.632 193.492L344.203 191.559" stroke="black"/>
    <path d="M355.203 160.004L353.956 157.746L352.346 160.644L350.441 157.746L348.537 160.644L346.632 157.746L345.203 159.678" stroke="black"/>
    <path d="M355.203 181.572L353.894 183.831L352.203 180.932L350.203 183.831L348.203 180.932L346.203 183.831L344.703 181.898" stroke="black"/>
    <path d="M355.203 165.148L353.956 167.407L352.346 164.508L350.441 167.407L348.537 164.508L346.632 167.407L345.203 165.475" stroke="black"/>
    <path d="M379.31 235.5C379.317 235.34 379.326 235.138 379.335 234.897C379.363 234.18 379.399 233.108 379.43 231.689C379.492 228.852 379.535 224.628 379.46 219.089C379.311 208.009 378.688 191.666 376.795 170.621C375.717 158.636 374.681 143.13 373.61 127.088C372.799 114.946 371.968 102.496 371.082 91.033C370.053 77.7191 368.951 65.7343 367.721 57.0815C367.106 52.7518 366.461 49.2763 365.783 46.891C365.444 45.6944 365.103 44.8018 364.77 44.2183C364.603 43.9264 364.451 43.7361 364.322 43.6237C364.196 43.5142 364.118 43.5 364.08 43.5C363.939 43.5 363.676 43.6037 363.397 44.4006C363.134 45.1528 362.941 46.3067 362.797 47.8696C362.557 50.4743 362.462 54.0898 362.343 58.6027C362.32 59.4885 362.296 60.409 362.269 61.3632C361.948 72.9726 361.305 89.4583 358.025 108.916C355.637 123.083 352.022 164.846 356.978 196.259C359.466 212.025 359.798 221.976 359.504 228C359.356 231.012 359.052 233.045 358.781 234.333C358.677 234.827 358.578 235.211 358.494 235.5H379.31Z" fill="white" stroke="black"/>
    <path d="M362.481 235.5H372.906C372.909 235.349 372.913 235.163 372.918 234.942C372.933 234.249 372.951 233.212 372.968 231.84C373 229.096 373.023 225.013 372.984 219.659C372.905 208.95 372.579 193.156 371.588 172.818C371.023 161.24 370.481 146.266 369.921 130.771C369.496 119.04 369.061 107.011 368.597 95.9308C368.058 83.0679 367.481 71.4836 366.836 63.117C366.514 58.9316 366.176 55.5631 365.819 53.2455C365.64 52.0833 365.46 51.206 365.28 50.6275C365.244 50.5096 365.209 50.4089 365.176 50.3239C365.136 50.455 365.095 50.6219 365.056 50.8291C364.914 51.579 364.812 52.7145 364.737 54.2275C364.611 56.7515 364.561 60.2533 364.499 64.6128C364.486 65.4682 364.474 66.3566 364.46 67.2772C364.292 78.49 363.955 94.4054 362.239 113.189C360.988 126.888 359.094 167.26 361.691 197.639C362.993 212.861 363.166 222.46 363.012 228.261C362.935 231.161 362.776 233.114 362.636 234.347C362.579 234.842 362.526 235.222 362.481 235.5ZM364.999 49.9839C364.998 49.9843 365.001 49.9875 365.007 49.9922C365.001 49.9858 364.999 49.9835 364.999 49.9839ZM365.315 49.9948C365.32 49.9906 365.322 49.9878 365.322 49.9874C365.322 49.987 365.319 49.9891 365.315 49.9948Z" fill="white" stroke="black"/>
    <path d="M360.94 185.573L362.311 183.661L364.081 186.114L366.175 183.661L368.269 186.114L370.363 183.661L371.934 185.297" stroke="black"/>
    <path d="M363.034 225.093L364.34 227.004L366.025 224.551L368.02 227.004L370.014 224.551L372.009 227.004L373.504 225.369" stroke="black"/>
    <path d="M362.51 110.059H362.901L364.081 107.606L365.477 110.059L366.873 107.606L368.269 110.059L369.316 108.424" stroke="black"/>
    <path d="M364.081 96.9746H364.082L364.852 94.5212L365.763 96.9746L366.674 94.5212L367.586 96.9746L368.269 95.339" stroke="black"/>
    <path d="M365.147 81.7219L366.718 79.2685L367.466 81.7219L367.765 80.0863" stroke="black"/>
    <path d="M361.463 121.508L362.115 122.326L363.632 119.873L365.427 122.326L367.222 119.873L369.017 122.326L369.316 121.508" stroke="black"/>
    <path d="M360.94 131.046L362.115 132.958L363.632 130.504L365.427 132.958L367.222 130.504L369.017 132.958L369.84 132.14" stroke="black"/>
    <path d="M360.94 144.683L362.115 142.771L363.632 145.225L365.427 142.771L367.222 145.225L369.017 142.771L370.363 144.407" stroke="black"/>
    <path d="M360.94 159.669L362.115 161.581L363.632 159.127L365.427 161.581L367.222 159.127L369.017 161.581L370.363 159.945" stroke="black"/>
    <path d="M363.034 207.653L364.34 205.742L366.025 208.195L368.02 205.742L370.014 208.195L372.009 205.742L372.981 206.559" stroke="black"/>
    <path d="M361.987 198.105L363.292 200.017L364.978 197.564L366.973 200.017L368.967 197.564L370.962 200.017L372.457 198.381" stroke="black"/>
    <path d="M360.94 171.67L362.246 169.758L363.931 172.212L365.926 169.758L367.92 172.212L369.915 169.758L371.41 171.394" stroke="black"/>
    <path d="M395.86 235.5H382.62C382.616 235.398 382.612 235.281 382.608 235.147C382.589 234.594 382.566 233.766 382.546 232.671C382.505 230.481 382.477 227.221 382.526 222.945C382.624 214.392 383.031 201.776 384.269 185.53C384.974 176.277 385.651 164.305 386.351 151.919C386.881 142.545 387.425 132.934 388.004 124.085C388.677 113.807 389.398 104.555 390.201 97.8767C390.604 94.5343 391.025 91.8537 391.467 90.0154C391.689 89.0922 391.91 88.4091 392.124 87.9669C392.232 87.7444 392.325 87.6106 392.395 87.539C392.403 87.5302 392.411 87.523 392.418 87.5171C392.425 87.5248 392.434 87.5352 392.445 87.549C392.514 87.637 392.599 87.8064 392.685 88.0959C392.855 88.6702 392.981 89.5563 393.075 90.7629C393.232 92.7725 393.294 95.5621 393.372 99.0462C393.387 99.7302 393.403 100.441 393.42 101.178C393.63 110.141 394.051 122.87 396.196 137.895C397.757 148.83 400.12 181.067 396.88 205.313C395.253 217.487 395.036 225.172 395.228 229.826C395.325 232.153 395.524 233.724 395.702 234.721C395.758 235.036 395.812 235.294 395.86 235.5ZM392.45 87.4929C392.45 87.4929 392.449 87.4934 392.448 87.494C392.449 87.4931 392.45 87.4928 392.45 87.4929ZM392.396 87.4983C392.393 87.4972 392.391 87.4959 392.391 87.4956C392.391 87.4952 392.393 87.4957 392.396 87.4983Z" fill="white" stroke="black"/>
    <path d="M393.266 235.5H386.809C386.808 235.407 386.806 235.302 386.804 235.183C386.794 234.647 386.782 233.847 386.771 232.788C386.75 230.67 386.735 227.518 386.761 223.385C386.812 215.118 387.025 202.924 387.673 187.224C388.042 178.286 388.397 166.725 388.763 154.762C389.041 145.705 389.325 136.418 389.629 127.865C389.981 117.935 390.359 108.992 390.78 102.534C390.991 99.3026 391.212 96.7033 391.445 94.9157C391.517 94.3648 391.589 93.8978 391.661 93.5168C391.722 94.0633 391.769 94.7816 391.807 95.6697C391.889 97.6176 391.922 100.32 391.962 103.686C391.97 104.346 391.979 105.032 391.988 105.743C392.098 114.4 392.318 126.688 393.44 141.191C394.258 151.766 395.496 182.931 393.798 206.381C392.947 218.134 392.834 225.546 392.934 230.026C392.985 232.266 393.088 233.775 393.181 234.728C393.211 235.044 393.24 235.299 393.266 235.5Z" fill="white" stroke="black"/>
    <path d="M394.462 197.069L393.566 195.593L392.409 197.487L391.039 195.593L389.67 197.487L388.301 195.593L387.274 196.856" stroke="black"/>
    <path d="M393.093 227.579L392.239 229.055L391.137 227.161L389.833 229.055L388.529 227.161L387.225 229.055L386.247 227.792" stroke="black"/>
    <path d="M393.436 138.771H393.18L392.409 136.877L391.496 138.771L390.583 136.877L389.67 138.771L388.985 137.508" stroke="black"/>
    <path d="M392.409 128.669H392.408L391.904 126.775L391.309 128.669L390.713 126.775L390.117 128.669L389.67 127.407" stroke="black"/>
    <path d="M391.711 116.894L390.684 115L390.195 116.894L390 115.631" stroke="black"/>
    <path d="M394.12 147.61L393.694 148.242L392.702 146.347L391.528 148.242L390.355 146.347L389.181 148.242L388.985 147.61" stroke="black"/>
    <path d="M394.462 154.973L393.694 156.449L392.702 154.555L391.528 156.449L390.355 154.555L389.181 156.449L388.643 155.818" stroke="black"/>
    <path d="M394.462 165.501L393.694 164.025L392.702 165.919L391.528 164.025L390.355 165.919L389.181 164.025L388.301 165.288" stroke="black"/>
    <path d="M394.462 177.071L393.694 178.547L392.702 176.653L391.528 178.547L390.355 176.653L389.181 178.547L388.301 177.284" stroke="black"/>
    <path d="M393.093 214.116L392.239 212.64L391.137 214.534L389.833 212.64L388.529 214.534L387.225 212.64L386.589 213.271" stroke="black"/>
    <path d="M393.778 206.744L392.924 208.22L391.822 206.326L390.518 208.22L389.214 206.326L387.91 208.22L386.932 206.958" stroke="black"/>
    <path d="M394.462 186.336L393.609 184.86L392.506 186.754L391.202 184.86L389.898 186.754L388.594 184.86L387.616 186.123" stroke="black"/>
    <path d="M336.292 235.119C336.257 235.261 336.223 235.388 336.191 235.5H349.386C349.388 235.458 349.39 235.413 349.392 235.365C349.41 234.962 349.434 234.358 349.454 233.559C349.494 231.96 349.523 229.578 349.474 226.453C349.376 220.203 348.969 210.98 347.732 199.103C347.027 192.333 346.35 183.568 345.649 174.503C345.119 167.645 344.575 160.616 343.997 154.15C343.324 146.632 342.604 139.871 341.801 134.994C341.4 132.552 340.981 130.605 340.544 129.277C340.324 128.609 340.11 128.128 339.908 127.824C339.808 127.673 339.724 127.585 339.663 127.539C339.633 127.517 339.613 127.507 339.603 127.503C339.597 127.501 339.594 127.501 339.593 127.5L339.59 127.5C339.59 127.5 339.59 127.5 339.589 127.5C339.574 127.499 339.457 127.494 339.299 127.885C339.14 128.277 339.017 128.899 338.923 129.777C338.768 131.238 338.706 133.267 338.628 135.817C338.613 136.317 338.597 136.838 338.58 137.379C338.369 143.94 337.948 153.267 335.8 164.276C334.242 172.259 331.883 195.811 335.116 213.51C336.745 222.427 336.965 228.069 336.771 231.496C336.674 233.211 336.473 234.374 336.292 235.119Z" fill="white" stroke="black"/>
    <path d="M338.76 235.5H345.194C345.195 235.467 345.196 235.433 345.197 235.396C345.206 235.006 345.218 234.421 345.229 233.647C345.25 232.099 345.265 229.795 345.239 226.773C345.188 220.729 344.975 211.813 344.327 200.332C343.958 193.792 343.603 185.331 343.237 176.577C342.959 169.952 342.675 163.159 342.371 156.906C342.019 149.642 341.642 143.104 341.221 138.384C341.01 136.022 340.79 134.129 340.559 132.831C340.484 132.414 340.411 132.068 340.338 131.792C340.278 132.181 340.231 132.701 340.193 133.356C340.111 134.775 340.078 136.746 340.038 139.209C340.03 139.692 340.021 140.195 340.012 140.715C339.902 147.05 339.682 156.048 338.559 166.667C337.742 174.394 336.505 197.176 338.201 214.31C339.053 222.914 339.167 228.347 339.066 231.637C339.015 233.282 338.911 234.394 338.817 235.1C338.797 235.251 338.778 235.384 338.76 235.5ZM340.084 131.11C340.084 131.11 340.085 131.112 340.088 131.116C340.085 131.112 340.084 131.11 340.084 131.11Z" fill="white" stroke="black"/>
    <path d="M337.538 207.52L338.434 206.441L339.591 207.826L340.961 206.441L342.33 207.826L343.699 206.441L344.726 207.364" stroke="black"/>
    <path d="M338.907 229.84L339.761 230.919L340.863 229.534L342.167 230.919L343.471 229.534L344.775 230.919L345.753 229.996" stroke="black"/>
    <path d="M338.564 164.873H338.82L339.591 163.487L340.504 164.873L341.417 163.487L342.33 164.873L343.015 163.949" stroke="black"/>
    <path d="M339.591 157.483H339.592L340.096 156.097L340.691 157.483L341.287 156.097L341.883 157.483L342.33 156.559" stroke="black"/>
    <path d="M340.289 148.869L341.316 147.483L341.805 148.869L342 147.945" stroke="black"/>
    <path d="M337.88 171.339L338.306 171.801L339.298 170.415L340.472 171.801L341.645 170.415L342.819 171.801L343.015 171.339" stroke="black"/>
    <path d="M337.538 176.725L338.306 177.805L339.298 176.419L340.472 177.805L341.645 176.419L342.819 177.805L343.357 177.343" stroke="black"/>
    <path d="M337.538 184.427L338.306 183.347L339.298 184.733L340.472 183.347L341.645 184.733L342.819 183.347L343.699 184.271" stroke="black"/>
    <path d="M337.538 192.891L338.306 193.97L339.298 192.585L340.472 193.97L341.645 192.585L342.819 193.97L343.699 193.047" stroke="black"/>
    <path d="M338.907 219.991L339.761 218.911L340.863 220.297L342.167 218.911L343.471 220.297L344.775 218.911L345.411 219.373" stroke="black"/>
    <path d="M338.222 214.598L339.076 215.678L340.178 214.292L341.482 215.678L342.786 214.292L344.09 215.678L345.068 214.754" stroke="black"/>
    <path d="M337.538 199.669L338.391 198.589L339.494 199.975L340.798 198.589L342.102 199.975L343.406 198.589L344.384 199.513" stroke="black"/>
    <path d="M331 232H399V286C399 290.971 394.971 295 390 295H340C335.029 295 331 290.971 331 286V232Z" fill="white" stroke="black" stroke-width="2"/>
    <path d="M342 239L352 260L342 250.5L332 260L342 239Z" fill="black"/>
    <path d="M381 239L391 260L381 250.5L371 260L381 239Z" fill="black"/>
    <path d="M362 239L372 260L362 250.5L352 260L362 239Z" fill="black"/>
    <path d="M399.5 242V251L391 259.5L399.5 242Z" fill="black"/>
    <path d="M389.5 267L379.5 288L389.5 278.5L399.5 288L389.5 267Z" fill="black"/>
    <path d="M332 270.5V279.5L340.5 288L332 270.5Z" fill="black"/>
    <path d="M350.5 267L340.5 288L350.5 278.5L360.5 288L350.5 267Z" fill="black"/>
    <path d="M369.5 267L359.5 288L369.5 278.5L379.5 288L369.5 267Z" fill="black"/>
    </svg>
    