<svg width="1200" height="800" viewBox="0 0 1200 800" fill="none" xmlns="http://www.w3.org/2000/svg">
    <path d="M384.653 502.5H404.518C404.526 502.289 404.535 502.009 404.546 501.66C404.572 500.782 404.606 499.47 404.636 497.734C404.695 494.262 404.737 489.094 404.665 482.318C404.522 468.765 403.927 448.775 402.119 423.035C401.089 408.381 400.101 389.426 399.078 369.813C398.304 354.965 397.51 339.74 396.663 325.718C395.68 309.437 394.627 294.776 393.452 284.188C392.864 278.891 392.247 274.63 391.597 271.699C391.271 270.23 390.942 269.121 390.616 268.39C390.451 268.023 390.3 267.779 390.171 267.635C390.065 267.517 390.007 267.502 389.998 267.5C389.972 267.5 389.899 267.504 389.777 267.674C389.646 267.856 389.508 268.167 389.378 268.643C389.12 269.587 388.935 271.02 388.797 272.934C388.567 276.127 388.476 280.557 388.363 286.075C388.341 287.158 388.317 288.283 388.292 289.448C387.985 303.641 387.371 323.788 384.241 347.565C381.958 364.902 378.503 415.995 383.241 454.439C385.616 473.707 385.932 485.86 385.651 493.207C385.511 496.88 385.221 499.354 384.964 500.917C384.848 501.62 384.739 502.139 384.653 502.5ZM389.996 267.5C389.996 267.5 389.997 267.5 389.997 267.5L389.996 267.5Z" fill="white" stroke="black"/>
    <path d="M388.644 500.954C388.582 501.649 388.524 502.155 388.479 502.5H398.404C398.407 502.299 398.412 502.036 398.418 501.711C398.432 500.863 398.449 499.594 398.465 497.916C398.496 494.56 398.518 489.565 398.48 483.017C398.405 469.919 398.094 450.602 397.147 425.731C396.608 411.574 396.09 393.266 395.555 374.321C395.15 359.976 394.734 345.266 394.291 331.714C393.776 315.985 393.224 301.817 392.609 291.582C392.301 286.463 391.977 282.337 391.636 279.495C391.465 278.071 391.291 276.986 391.116 276.264C391.093 276.171 391.071 276.085 391.05 276.008C391.018 276.156 390.987 276.33 390.957 276.533C390.819 277.465 390.721 278.867 390.649 280.718C390.529 283.809 390.481 288.096 390.422 293.426C390.41 294.472 390.398 295.558 390.385 296.683C390.224 310.392 389.903 329.847 388.265 352.807C387.069 369.566 385.259 418.947 387.741 456.111C388.984 474.718 389.149 486.448 389.002 493.53C388.929 497.072 388.777 499.454 388.644 500.954Z" fill="white" stroke="black"/>
    <path d="M387 441.338L388.31 439L390 442L392 439L394 442L396 439L397.5 441" stroke="black"/>
    <path d="M389 489.662L390.247 492L391.857 489L393.762 492L395.667 489L397.571 492L399 490" stroke="black"/>
    <path d="M389 479.662L390.122 482L391.571 479L393.286 482L395 479L396.714 482L398 480" stroke="black"/>
    <path d="M388.5 349H388.873L390 346L391.333 349L392.667 346L394 349L395 347" stroke="black"/>
    <path d="M388.873 341L390 338L391.333 341L392.667 338L394 341" stroke="black"/>
    <path d="M390 333H390.001L390.737 330L391.607 333L392.477 330L393.347 333L394 331" stroke="black"/>
    <path d="M390 323L390.736 320L391.607 323L392.477 320L393.347 323L394 321" stroke="black"/>
    <path d="M390.5 306L392 303L392.714 306L393 304" stroke="black"/>
    <path d="M390 310.5L390.375 310L391.875 313L393 311" stroke="black"/>
    <path d="M390.5 293L391.5 295L392.5 292.5" stroke="black"/>
    <path d="M387.5 363L388.122 364L389.571 361L391.286 364L393 361L394.714 364L395 363" stroke="black"/>
    <path d="M387 374.662L388.122 377L389.571 374L391.286 377L393 374L394.714 377L395.5 376" stroke="black"/>
    <path d="M387 391.338L388.122 389L389.571 392L391.286 389L393 392L394.714 389L396 391" stroke="black"/>
    <path d="M387 399.662L388.122 402L389.571 399L391.286 402L393 399L394.714 402L396 400" stroke="black"/>
    <path d="M387 409.662L388.122 412L389.571 409L391.286 412L393 409L394.714 412L396 410" stroke="black"/>
    <path d="M389 468.338L390.247 466L391.857 469L393.762 466L395.667 469L397.571 466L398.5 467" stroke="black"/>
    <path d="M388 456.662L389.247 459L390.857 456L392.762 459L394.667 456L396.571 459L398 457" stroke="black"/>
    <path d="M387 424.338L388.247 422L389.857 425L391.762 422L393.667 425L395.571 422L397 424" stroke="black"/>
    <path d="M387 446.662L388.31 449L390 446L392 449L394 446L396 449L397.5 447" stroke="black"/>
    <path d="M387 429.662L388.247 432L389.857 429L391.762 432L393.667 429L395.571 432L397 430" stroke="black"/>
    <path d="M349.684 502.5C349.677 502.298 349.668 502.033 349.657 501.704C349.631 500.856 349.597 499.589 349.567 497.912C349.508 494.558 349.466 489.566 349.538 483.019C349.681 469.926 350.276 450.615 352.084 425.748C353.114 411.59 354.102 393.278 355.125 374.329C355.9 359.985 356.694 345.276 357.54 331.729C358.523 316.001 359.576 301.837 360.751 291.609C361.339 286.492 361.956 282.377 362.605 279.547C362.931 278.128 363.259 277.06 363.585 276.356C363.748 276.002 363.898 275.769 364.026 275.631C364.089 275.564 364.136 275.53 364.167 275.514C364.181 275.506 364.191 275.503 364.196 275.501C364.201 275.5 364.204 275.5 364.205 275.5C364.236 275.5 364.311 275.506 364.431 275.668C364.56 275.841 364.697 276.138 364.826 276.596C365.084 277.505 365.269 278.887 365.406 280.736C365.636 283.819 365.727 288.098 365.84 293.429C365.863 294.475 365.886 295.562 365.911 296.688C366.218 310.4 366.832 329.865 369.963 352.839C372.245 369.586 375.7 418.944 370.962 456.081C368.588 474.697 368.271 486.44 368.552 493.54C368.693 497.09 368.982 499.482 369.24 500.993C369.353 501.657 369.459 502.152 369.545 502.5H349.684Z" fill="white" stroke="black"/>
    <path d="M365.722 502.5H355.799C355.795 502.308 355.791 502.059 355.786 501.755C355.772 500.935 355.754 499.709 355.738 498.088C355.707 494.845 355.685 490.021 355.723 483.694C355.798 471.041 356.11 452.379 357.056 428.351C357.595 414.674 358.113 396.987 358.648 378.684C359.054 364.825 359.469 350.613 359.913 337.522C360.427 322.326 360.979 308.638 361.594 298.751C361.902 293.805 362.226 289.82 362.567 287.075C362.738 285.7 362.912 284.653 363.086 283.957C363.109 283.866 363.132 283.782 363.154 283.706C363.185 283.849 363.216 284.018 363.247 284.215C363.384 285.114 363.482 286.466 363.554 288.254C363.674 291.24 363.722 295.381 363.782 300.53C363.793 301.541 363.805 302.59 363.818 303.677C363.979 316.922 364.301 335.718 365.939 357.9C367.134 374.091 368.944 421.796 366.462 457.698C365.219 475.676 365.055 487.008 365.201 493.852C365.275 497.274 365.426 499.576 365.56 501.026C365.62 501.684 365.677 502.167 365.722 502.5Z" fill="white" stroke="black"/>
    <path d="M367.203 443.428L365.894 441.169L364.203 444.068L362.203 441.169L360.203 444.068L358.203 441.169L356.703 443.102" stroke="black"/>
    <path d="M365.203 490.114L363.956 492.373L362.346 489.475L360.441 492.373L358.536 489.475L356.632 492.373L355.203 490.441" stroke="black"/>
    <path d="M365.203 480.453L364.081 482.712L362.632 479.814L360.917 482.712L359.203 479.814L357.489 482.712L356.203 480.78" stroke="black"/>
    <path d="M365.703 354.22H365.33L364.203 351.322L362.87 354.22L361.536 351.322L360.203 354.22L359.203 352.288" stroke="black"/>
    <path d="M365.33 346.492L364.203 343.593L362.87 346.492L361.536 343.593L360.203 346.492" stroke="black"/>
    <path d="M364.203 338.763H364.202L363.466 335.864L362.596 338.763L361.726 335.864L360.856 338.763L360.203 336.83" stroke="black"/>
    <path d="M364.203 329.102L363.467 326.203L362.597 329.102L361.726 326.203L360.856 329.102L360.203 327.169" stroke="black"/>
    <path d="M363.703 312.678L362.203 309.78L361.489 312.678L361.203 310.746" stroke="black"/>
    <path d="M364.203 317.025L363.828 316.542L362.328 319.441L361.203 317.508" stroke="black"/>
    <path d="M363.703 300.119L362.703 302.051L361.703 299.636" stroke="black"/>
    <path d="M366.703 367.746L366.081 368.712L364.632 365.814L362.917 368.712L361.203 365.814L359.489 368.712L359.203 367.746" stroke="black"/>
    <path d="M367.203 379.013L366.081 381.271L364.632 378.373L362.917 381.271L361.203 378.373L359.489 381.271L358.703 380.305" stroke="black"/>
    <path d="M367.203 395.123L366.081 392.864L364.632 395.763L362.917 392.864L361.203 395.763L359.489 392.864L358.203 394.797" stroke="black"/>
    <path d="M367.203 403.165L366.081 405.424L364.632 402.525L362.917 405.424L361.203 402.525L359.489 405.424L358.203 403.491" stroke="black"/>
    <path d="M367.203 412.826L366.081 415.085L364.632 412.186L362.917 415.085L361.203 412.186L359.489 415.085L358.203 413.153" stroke="black"/>
    <path d="M365.203 469.513L363.956 467.254L362.346 470.153L360.441 467.254L358.536 470.153L356.632 467.254L355.703 468.22" stroke="black"/>
    <path d="M366.203 458.233L364.956 460.492L363.346 457.593L361.441 460.492L359.536 457.593L357.632 460.492L356.203 458.559" stroke="black"/>
    <path d="M367.203 427.004L365.956 424.746L364.346 427.644L362.441 424.746L360.536 427.644L358.632 424.746L357.203 426.678" stroke="black"/>
    <path d="M367.203 448.572L365.894 450.831L364.203 447.932L362.203 450.831L360.203 447.932L358.203 450.831L356.703 448.898" stroke="black"/>
    <path d="M367.203 432.148L365.956 434.407L364.346 431.508L362.441 434.407L360.536 431.508L358.632 434.407L357.203 432.475" stroke="black"/>
    <path d="M391.31 502.5C391.317 502.34 391.326 502.138 391.335 501.897C391.363 501.18 391.399 500.108 391.43 498.689C391.492 495.852 391.535 491.628 391.46 486.089C391.311 475.009 390.688 458.666 388.795 437.621C387.717 425.636 386.681 410.13 385.61 394.088C384.799 381.946 383.968 369.496 383.082 358.033C382.053 344.719 380.951 332.734 379.721 324.082C379.106 319.752 378.461 316.276 377.783 313.891C377.444 312.694 377.103 311.802 376.77 311.218C376.603 310.926 376.451 310.736 376.322 310.624C376.196 310.514 376.118 310.5 376.08 310.5C375.939 310.5 375.676 310.604 375.397 311.401C375.134 312.153 374.941 313.307 374.797 314.87C374.557 317.474 374.462 321.09 374.343 325.603C374.32 326.489 374.296 327.409 374.269 328.363C373.948 339.973 373.305 356.458 370.025 375.916C367.637 390.083 364.022 431.846 368.978 463.259C371.466 479.025 371.798 488.976 371.504 495C371.356 498.012 371.052 500.045 370.781 501.333C370.677 501.827 370.578 502.211 370.494 502.5H391.31Z" fill="white" stroke="black"/>
    <path d="M374.481 502.5H384.906C384.909 502.349 384.913 502.163 384.918 501.942C384.933 501.249 384.951 500.212 384.968 498.84C385 496.096 385.023 492.013 384.984 486.659C384.905 475.95 384.579 460.156 383.588 439.818C383.023 428.24 382.481 413.266 381.921 397.771C381.496 386.04 381.061 374.01 380.597 362.931C380.058 350.068 379.481 338.484 378.836 330.117C378.514 325.932 378.176 322.563 377.819 320.246C377.64 319.083 377.46 318.206 377.28 317.628C377.244 317.51 377.209 317.409 377.176 317.324C377.136 317.455 377.095 317.622 377.056 317.829C376.914 318.579 376.812 319.714 376.737 321.227C376.611 323.752 376.561 327.253 376.499 331.613C376.486 332.468 376.474 333.357 376.46 334.277C376.292 345.49 375.955 361.405 374.239 380.189C372.988 393.888 371.094 434.26 373.691 464.639C374.993 479.861 375.166 489.46 375.012 495.261C374.935 498.161 374.776 500.114 374.636 501.347C374.579 501.842 374.526 502.222 374.481 502.5ZM376.999 316.984C376.998 316.984 377.001 316.988 377.007 316.992C377.001 316.986 376.999 316.983 376.999 316.984ZM377.315 316.995C377.32 316.991 377.322 316.988 377.322 316.987C377.322 316.987 377.319 316.989 377.315 316.995Z" fill="white" stroke="black"/>
    <path d="M372.939 452.573L374.311 450.661L376.081 453.114L378.175 450.661L380.269 453.114L382.363 450.661L383.934 452.297" stroke="black"/>
    <path d="M375.034 492.093L376.34 494.004L378.025 491.551L380.02 494.004L382.014 491.551L384.009 494.004L385.504 492.369" stroke="black"/>
    <path d="M374.51 377.059H374.901L376.081 374.606L377.477 377.059L378.873 374.606L380.269 377.059L381.316 375.424" stroke="black"/>
    <path d="M376.081 363.975H376.082L376.852 361.521L377.763 363.975L378.674 361.521L379.586 363.975L380.269 362.339" stroke="black"/>
    <path d="M377.147 348.722L378.718 346.268L379.466 348.722L379.765 347.086" stroke="black"/>
    <path d="M373.463 388.509L374.115 389.326L375.632 386.873L377.427 389.326L379.222 386.873L381.017 389.326L381.316 388.509" stroke="black"/>
    <path d="M372.939 398.046L374.115 399.958L375.632 397.504L377.427 399.958L379.222 397.504L381.017 399.958L381.84 399.14" stroke="black"/>
    <path d="M372.939 411.683L374.115 409.771L375.632 412.225L377.427 409.771L379.222 412.225L381.017 409.771L382.363 411.407" stroke="black"/>
    <path d="M372.939 426.669L374.115 428.58L375.632 426.127L377.427 428.58L379.222 426.127L381.017 428.58L382.363 426.945" stroke="black"/>
    <path d="M375.034 474.653L376.34 472.742L378.025 475.195L380.02 472.742L382.014 475.195L384.009 472.742L384.981 473.559" stroke="black"/>
    <path d="M373.987 465.105L375.293 467.017L376.978 464.564L378.973 467.017L380.967 464.564L382.962 467.017L384.458 465.381" stroke="black"/>
    <path d="M372.939 438.67L374.245 436.759L375.931 439.212L377.926 436.759L379.92 439.212L381.914 436.759L383.41 438.394" stroke="black"/>
    <path d="M407.86 502.5H394.62C394.616 502.398 394.612 502.281 394.608 502.147C394.589 501.594 394.566 500.766 394.546 499.671C394.505 497.481 394.477 494.221 394.526 489.945C394.624 481.392 395.031 468.776 396.269 452.53C396.974 443.277 397.651 431.305 398.351 418.919C398.881 409.545 399.425 399.934 400.004 391.085C400.677 380.807 401.398 371.555 402.201 364.877C402.604 361.534 403.025 358.854 403.467 357.015C403.689 356.092 403.91 355.409 404.124 354.967C404.232 354.744 404.325 354.611 404.395 354.539C404.403 354.53 404.411 354.523 404.418 354.517C404.425 354.525 404.434 354.535 404.445 354.549C404.514 354.637 404.599 354.806 404.685 355.096C404.855 355.67 404.981 356.556 405.075 357.763C405.232 359.772 405.294 362.562 405.372 366.046C405.387 366.73 405.403 367.441 405.42 368.178C405.63 377.141 406.051 389.87 408.196 404.895C409.757 415.83 412.12 448.067 408.88 472.313C407.253 484.487 407.036 492.172 407.228 496.826C407.325 499.153 407.524 500.724 407.702 501.721C407.758 502.036 407.812 502.294 407.86 502.5ZM404.45 354.493C404.45 354.493 404.449 354.493 404.448 354.494C404.449 354.493 404.45 354.493 404.45 354.493ZM404.396 354.498C404.393 354.497 404.391 354.496 404.391 354.496C404.391 354.495 404.393 354.496 404.396 354.498Z" fill="white" stroke="black"/>
    <path d="M405.266 502.5H398.809C398.808 502.407 398.806 502.302 398.804 502.183C398.794 501.647 398.782 500.847 398.771 499.788C398.75 497.67 398.735 494.518 398.761 490.385C398.812 482.118 399.025 469.925 399.673 454.224C400.042 445.286 400.397 433.725 400.763 421.762C401.041 412.705 401.325 403.419 401.629 394.865C401.981 384.935 402.359 375.992 402.78 369.534C402.991 366.303 403.212 363.703 403.445 361.916C403.517 361.365 403.589 360.898 403.661 360.517C403.722 361.063 403.769 361.782 403.807 362.67C403.889 364.618 403.922 367.32 403.962 370.686C403.97 371.346 403.979 372.032 403.988 372.743C404.098 381.4 404.318 393.688 405.44 408.191C406.258 418.766 407.496 449.931 405.798 473.381C404.947 485.134 404.834 492.546 404.934 497.026C404.985 499.266 405.088 500.775 405.181 501.728C405.211 502.044 405.24 502.299 405.266 502.5Z" fill="white" stroke="black"/>
    <path d="M406.462 464.069L405.566 462.593L404.409 464.487L403.039 462.593L401.67 464.487L400.301 462.593L399.274 463.856" stroke="black"/>
    <path d="M405.093 494.579L404.239 496.055L403.137 494.161L401.833 496.055L400.529 494.161L399.225 496.055L398.247 494.792" stroke="black"/>
    <path d="M405.436 405.771H405.18L404.409 403.877L403.496 405.771L402.583 403.877L401.67 405.771L400.985 404.508" stroke="black"/>
    <path d="M404.409 395.669H404.408L403.904 393.775L403.309 395.669L402.713 393.775L402.117 395.669L401.67 394.407" stroke="black"/>
    <path d="M403.711 383.894L402.684 382L402.195 383.894L402 382.631" stroke="black"/>
    <path d="M406.12 414.61L405.694 415.241L404.702 413.347L403.528 415.241L402.355 413.347L401.181 415.241L400.985 414.61" stroke="black"/>
    <path d="M406.462 421.973L405.694 423.449L404.702 421.555L403.528 423.449L402.355 421.555L401.181 423.449L400.643 422.818" stroke="black"/>
    <path d="M406.462 432.501L405.694 431.025L404.702 432.919L403.528 431.025L402.355 432.919L401.181 431.025L400.301 432.288" stroke="black"/>
    <path d="M406.462 444.071L405.694 445.547L404.702 443.653L403.528 445.547L402.355 443.653L401.181 445.547L400.301 444.284" stroke="black"/>
    <path d="M405.093 481.116L404.239 479.64L403.137 481.534L401.833 479.64L400.529 481.534L399.225 479.64L398.589 480.271" stroke="black"/>
    <path d="M405.778 473.744L404.924 475.22L403.822 473.326L402.518 475.22L401.214 473.326L399.91 475.22L398.932 473.958" stroke="black"/>
    <path d="M406.462 453.336L405.609 451.86L404.506 453.754L403.202 451.86L401.898 453.754L400.594 451.86L399.616 453.123" stroke="black"/>
    <path d="M348.292 502.119C348.257 502.261 348.223 502.388 348.191 502.5H361.386C361.388 502.458 361.39 502.413 361.393 502.365C361.411 501.962 361.434 501.358 361.454 500.559C361.495 498.96 361.523 496.578 361.474 493.453C361.376 487.203 360.969 477.98 359.733 466.103C359.028 459.333 358.35 450.568 357.649 441.503C357.119 434.645 356.576 427.616 355.997 421.15C355.324 413.632 354.604 406.871 353.802 401.994C353.4 399.552 352.981 397.605 352.544 396.277C352.325 395.609 352.11 395.128 351.909 394.824C351.808 394.673 351.725 394.585 351.663 394.539C351.634 394.517 351.614 394.507 351.603 394.503C351.598 394.501 351.594 394.501 351.593 394.5L351.591 394.5C351.59 394.5 351.59 394.5 351.589 394.5C351.575 394.499 351.457 394.494 351.299 394.885C351.141 395.277 351.017 395.899 350.924 396.777C350.768 398.238 350.706 400.267 350.628 402.817C350.613 403.317 350.597 403.838 350.58 404.379C350.37 410.94 349.948 420.267 347.8 431.276C346.242 439.259 343.883 462.811 347.116 480.51C348.745 489.427 348.965 495.069 348.771 498.496C348.674 500.211 348.473 501.374 348.292 502.119Z" fill="white" stroke="black"/>
    <path d="M350.76 502.5H357.194C357.195 502.467 357.196 502.433 357.197 502.397C357.206 502.006 357.218 501.421 357.229 500.647C357.25 499.099 357.265 496.795 357.239 493.773C357.188 487.729 356.975 478.813 356.327 467.332C355.958 460.792 355.603 452.331 355.237 443.577C354.959 436.952 354.675 430.159 354.371 423.906C354.019 416.642 353.642 410.104 353.221 405.384C353.01 403.022 352.79 401.129 352.559 399.831C352.484 399.414 352.411 399.068 352.338 398.792C352.278 399.181 352.231 399.701 352.193 400.356C352.111 401.775 352.078 403.746 352.038 406.209C352.03 406.692 352.021 407.195 352.012 407.715C351.902 414.05 351.682 423.048 350.559 433.667C349.742 441.394 348.505 464.176 350.201 481.31C351.053 489.914 351.167 495.347 351.066 498.637C351.015 500.282 350.911 501.394 350.817 502.1C350.797 502.251 350.778 502.384 350.76 502.5ZM352.084 398.11C352.084 398.11 352.085 398.112 352.088 398.116C352.085 398.112 352.084 398.11 352.084 398.11Z" fill="white" stroke="black"/>
    <path d="M349.538 474.52L350.434 473.441L351.591 474.826L352.961 473.441L354.33 474.826L355.699 473.441L356.726 474.364" stroke="black"/>
    <path d="M350.907 496.84L351.761 497.92L352.863 496.534L354.167 497.92L355.471 496.534L356.775 497.92L357.753 496.996" stroke="black"/>
    <path d="M350.564 431.873H350.82L351.591 430.487L352.504 431.873L353.417 430.487L354.33 431.873L355.015 430.949" stroke="black"/>
    <path d="M351.591 424.483H351.592L352.096 423.097L352.691 424.483L353.287 423.097L353.883 424.483L354.33 423.559" stroke="black"/>
    <path d="M352.289 415.869L353.316 414.483L353.805 415.869L354 414.945" stroke="black"/>
    <path d="M349.88 438.339L350.306 438.801L351.298 437.415L352.472 438.801L353.645 437.415L354.819 438.801L355.015 438.339" stroke="black"/>
    <path d="M349.538 443.725L350.306 444.805L351.298 443.419L352.472 444.805L353.645 443.419L354.819 444.805L355.357 444.343" stroke="black"/>
    <path d="M349.538 451.427L350.306 450.347L351.298 451.733L352.472 450.347L353.645 451.733L354.819 450.347L355.699 451.271" stroke="black"/>
    <path d="M349.538 459.891L350.306 460.97L351.298 459.585L352.472 460.97L353.645 459.585L354.819 460.97L355.699 460.047" stroke="black"/>
    <path d="M350.907 486.991L351.761 485.911L352.863 487.297L354.167 485.911L355.471 487.297L356.775 485.911L357.411 486.373" stroke="black"/>
    <path d="M350.222 481.598L351.076 482.678L352.178 481.292L353.482 482.678L354.786 481.292L356.09 482.678L357.068 481.754" stroke="black"/>
    <path d="M349.538 466.669L350.391 465.589L351.494 466.975L352.798 465.589L354.102 466.975L355.406 465.589L356.384 466.513" stroke="black"/>
    <path d="M343 499H411V553C411 557.971 406.971 562 402 562H352C347.029 562 343 557.971 343 553V499Z" fill="white" stroke="black" stroke-width="2"/>
    <path d="M354 506L364 527L354 517.5L344 527L354 506Z" fill="black"/>
    <path d="M393 506L403 527L393 517.5L383 527L393 506Z" fill="black"/>
    <path d="M374 506L384 527L374 517.5L364 527L374 506Z" fill="black"/>
    <path d="M411.5 509V518L403 526.5L411.5 509Z" fill="black"/>
    <path d="M401.5 534L391.5 555L401.5 545.5L411.5 555L401.5 534Z" fill="black"/>
    <path d="M344 537.5V546.5L352.5 555L344 537.5Z" fill="black"/>
    <path d="M362.5 534L352.5 555L362.5 545.5L372.5 555L362.5 534Z" fill="black"/>
    <path d="M381.5 534L371.5 555L381.5 545.5L391.5 555L381.5 534Z" fill="black"/>
    </svg>
    