<svg width="800" height="800" viewBox="0 0 800 800" fill="none"
    xmlns="http://www.w3.org/2000/svg">
    <path d="M184.653 502.5H204.518C204.526 502.289 204.535 502.009 204.546 501.66C204.572 500.782 204.606 499.47 204.636 497.734C204.695 494.262 204.737 489.094 204.665 482.318C204.522 468.765 203.927 448.775 202.119 423.035C201.089 408.381 200.101 389.426 199.078 369.813C198.304 354.965 197.51 339.74 196.663 325.718C195.68 309.437 194.627 294.776 193.452 284.188C192.864 278.891 192.247 274.63 191.597 271.699C191.271 270.23 190.942 269.121 190.616 268.39C190.451 268.023 190.3 267.779 190.171 267.635C190.065 267.517 190.007 267.502 189.998 267.5C189.972 267.5 189.899 267.504 189.777 267.674C189.646 267.856 189.508 268.167 189.378 268.643C189.12 269.587 188.935 271.02 188.797 272.934C188.567 276.127 188.476 280.557 188.363 286.075C188.341 287.158 188.317 288.283 188.292 289.448C187.985 303.641 187.371 323.788 184.241 347.565C181.958 364.902 178.503 415.995 183.241 454.439C185.616 473.707 185.932 485.86 185.651 493.207C185.511 496.88 185.221 499.354 184.964 500.917C184.848 501.62 184.739 502.139 184.653 502.5ZM189.996 267.5C189.996 267.5 189.997 267.5 189.997 267.5L189.996 267.5Z" fill="white" stroke="black"/>
    <path d="M191.05 276.008C191.018 276.156 190.987 276.33 190.957 276.533C190.819 277.465 190.721 278.867 190.649 280.718C190.529 283.809 190.481 288.095 190.422 293.426C190.41 294.472 190.398 295.558 190.385 296.683C190.224 310.392 189.903 329.847 188.265 352.807C187.069 369.566 185.259 418.947 187.741 456.111C188.984 474.718 189.149 486.448 189.002 493.53C188.929 497.072 188.777 499.454 188.644 500.954C188.582 501.649 188.524 502.155 188.479 502.5H198.404C198.407 502.299 198.412 502.036 198.418 501.711C198.432 500.863 198.449 499.594 198.465 497.916C198.496 494.56 198.518 489.565 198.48 483.017C198.405 469.919 198.094 450.602 197.147 425.731C196.608 411.574 196.09 393.266 195.555 374.321C195.15 359.976 194.734 345.266 194.291 331.714C193.776 315.985 193.224 301.817 192.609 291.582C192.301 286.463 191.977 282.337 191.636 279.495C191.465 278.071 191.291 276.986 191.116 276.264C191.093 276.171 191.071 276.085 191.05 276.008Z" fill="white" stroke="black"/>
    <path d="M187 441.338L188.31 439L190 442L192 439L194 442L196 439L197.5 441" stroke="black"/>
    <path d="M189 489.662L190.247 492L191.857 489L193.762 492L195.667 489L197.571 492L199 490" stroke="black"/>
    <path d="M189 479.662L190.122 482L191.571 479L193.286 482L195 479L196.714 482L198 480" stroke="black"/>
    <path d="M188.5 349H188.873L190 346L191.333 349L192.667 346L194 349L195 347" stroke="black"/>
    <path d="M188.873 341L190 338L191.333 341L192.667 338L194 341" stroke="black"/>
    <path d="M190 333H190.001L190.737 330L191.607 333L192.477 330L193.347 333L194 331" stroke="black"/>
    <path d="M190 323L190.736 320L191.607 323L192.477 320L193.347 323L194 321" stroke="black"/>
    <path d="M190.5 306L192 303L192.714 306L193 304" stroke="black"/>
    <path d="M190 310.5L190.375 310L191.875 313L193 311" stroke="black"/>
    <path d="M190.5 293L191.5 295L192.5 292.5" stroke="black"/>
    <path d="M187.5 363L188.122 364L189.571 361L191.286 364L193 361L194.714 364L195 363" stroke="black"/>
    <path d="M187 374.662L188.122 377L189.571 374L191.286 377L193 374L194.714 377L195.5 376" stroke="black"/>
    <path d="M187 391.338L188.122 389L189.571 392L191.286 389L193 392L194.714 389L196 391" stroke="black"/>
    <path d="M187 399.662L188.122 402L189.571 399L191.286 402L193 399L194.714 402L196 400" stroke="black"/>
    <path d="M187 409.662L188.122 412L189.571 409L191.286 412L193 409L194.714 412L196 410" stroke="black"/>
    <path d="M189 468.338L190.247 466L191.857 469L193.762 466L195.667 469L197.571 466L198.5 467" stroke="black"/>
    <path d="M188 456.662L189.247 459L190.857 456L192.762 459L194.667 456L196.571 459L198 457" stroke="black"/>
    <path d="M187 424.338L188.247 422L189.857 425L191.762 422L193.667 425L195.571 422L197 424" stroke="black"/>
    <path d="M187 446.662L188.31 449L190 446L192 449L194 446L196 449L197.5 447" stroke="black"/>
    <path d="M187 429.662L188.247 432L189.857 429L191.762 432L193.667 429L195.571 432L197 430" stroke="black"/>
    <path d="M149.684 502.5C149.677 502.298 149.668 502.033 149.657 501.704C149.631 500.856 149.597 499.589 149.567 497.912C149.508 494.558 149.466 489.566 149.538 483.019C149.681 469.926 150.276 450.615 152.084 425.748C153.114 411.59 154.102 393.278 155.125 374.329C155.9 359.985 156.694 345.276 157.54 331.729C158.523 316.001 159.576 301.837 160.751 291.609C161.339 286.492 161.956 282.377 162.605 279.547C162.931 278.128 163.259 277.06 163.585 276.356C163.748 276.002 163.898 275.769 164.026 275.631C164.089 275.564 164.136 275.53 164.167 275.514C164.181 275.506 164.191 275.503 164.196 275.501C164.201 275.5 164.204 275.5 164.205 275.5C164.236 275.5 164.311 275.506 164.431 275.668C164.56 275.841 164.697 276.138 164.826 276.596C165.084 277.505 165.269 278.887 165.406 280.736C165.636 283.819 165.727 288.098 165.84 293.429C165.863 294.475 165.886 295.562 165.911 296.688C166.218 310.4 166.832 329.865 169.963 352.839C172.245 369.586 175.7 418.944 170.962 456.081C168.588 474.697 168.271 486.44 168.552 493.54C168.693 497.09 168.982 499.482 169.24 500.993C169.353 501.657 169.459 502.152 169.545 502.5H149.684Z" fill="white" stroke="black"/>
    <path d="M165.722 502.5H155.799C155.795 502.308 155.791 502.059 155.786 501.755C155.772 500.935 155.754 499.709 155.738 498.088C155.707 494.845 155.685 490.021 155.723 483.694C155.798 471.041 156.11 452.379 157.056 428.351C157.595 414.674 158.113 396.987 158.648 378.684C159.054 364.825 159.469 350.613 159.913 337.522C160.427 322.326 160.979 308.638 161.594 298.751C161.902 293.805 162.226 289.82 162.567 287.075C162.738 285.7 162.912 284.653 163.086 283.957C163.109 283.866 163.132 283.782 163.154 283.706C163.185 283.849 163.216 284.018 163.247 284.215C163.384 285.114 163.482 286.466 163.554 288.254C163.674 291.24 163.722 295.381 163.782 300.531C163.793 301.541 163.805 302.59 163.818 303.677C163.979 316.922 164.301 335.718 165.939 357.9C167.134 374.091 168.944 421.796 166.462 457.698C165.219 475.676 165.055 487.008 165.201 493.852C165.275 497.274 165.426 499.576 165.56 501.026C165.62 501.684 165.677 502.167 165.722 502.5Z" fill="white" stroke="black"/>
    <path d="M167.203 443.428L165.894 441.169L164.203 444.068L162.203 441.169L160.203 444.068L158.203 441.169L156.703 443.102" stroke="black"/>
    <path d="M165.203 490.114L163.956 492.373L162.346 489.475L160.441 492.373L158.536 489.475L156.632 492.373L155.203 490.441" stroke="black"/>
    <path d="M165.203 480.453L164.081 482.712L162.632 479.814L160.917 482.712L159.203 479.814L157.489 482.712L156.203 480.78" stroke="black"/>
    <path d="M165.703 354.22H165.33L164.203 351.322L162.87 354.22L161.536 351.322L160.203 354.22L159.203 352.288" stroke="black"/>
    <path d="M165.33 346.492L164.203 343.593L162.87 346.492L161.536 343.593L160.203 346.492" stroke="black"/>
    <path d="M164.203 338.763H164.202L163.466 335.864L162.596 338.763L161.726 335.864L160.856 338.763L160.203 336.83" stroke="black"/>
    <path d="M164.203 329.102L163.467 326.203L162.597 329.102L161.726 326.203L160.856 329.102L160.203 327.169" stroke="black"/>
    <path d="M163.703 312.678L162.203 309.78L161.489 312.678L161.203 310.746" stroke="black"/>
    <path d="M164.203 317.025L163.828 316.542L162.328 319.441L161.203 317.508" stroke="black"/>
    <path d="M163.703 300.119L162.703 302.051L161.703 299.636" stroke="black"/>
    <path d="M166.703 367.746L166.081 368.712L164.632 365.814L162.917 368.712L161.203 365.814L159.489 368.712L159.203 367.746" stroke="black"/>
    <path d="M167.203 379.013L166.081 381.271L164.632 378.373L162.917 381.271L161.203 378.373L159.489 381.271L158.703 380.305" stroke="black"/>
    <path d="M167.203 395.123L166.081 392.864L164.632 395.763L162.917 392.864L161.203 395.763L159.489 392.864L158.203 394.797" stroke="black"/>
    <path d="M167.203 403.165L166.081 405.424L164.632 402.525L162.917 405.424L161.203 402.525L159.489 405.424L158.203 403.491" stroke="black"/>
    <path d="M167.203 412.826L166.081 415.085L164.632 412.186L162.917 415.085L161.203 412.186L159.489 415.085L158.203 413.153" stroke="black"/>
    <path d="M165.203 469.513L163.956 467.254L162.346 470.153L160.441 467.254L158.536 470.153L156.632 467.254L155.703 468.22" stroke="black"/>
    <path d="M166.203 458.233L164.956 460.492L163.346 457.593L161.441 460.492L159.536 457.593L157.632 460.492L156.203 458.559" stroke="black"/>
    <path d="M167.203 427.004L165.956 424.746L164.346 427.644L162.441 424.746L160.536 427.644L158.632 424.746L157.203 426.678" stroke="black"/>
    <path d="M167.203 448.572L165.894 450.831L164.203 447.932L162.203 450.831L160.203 447.932L158.203 450.831L156.703 448.898" stroke="black"/>
    <path d="M167.203 432.148L165.956 434.407L164.346 431.508L162.441 434.407L160.536 431.508L158.632 434.407L157.203 432.475" stroke="black"/>
    <path d="M191.31 502.5C191.317 502.34 191.326 502.138 191.335 501.897C191.363 501.18 191.399 500.108 191.43 498.689C191.492 495.852 191.535 491.628 191.46 486.089C191.311 475.009 190.688 458.666 188.795 437.621C187.717 425.636 186.681 410.13 185.61 394.088C184.799 381.946 183.968 369.496 183.082 358.033C182.053 344.719 180.951 332.734 179.721 324.082C179.106 319.752 178.461 316.276 177.783 313.891C177.444 312.694 177.103 311.802 176.77 311.218C176.603 310.926 176.451 310.736 176.322 310.624C176.196 310.514 176.118 310.5 176.08 310.5C175.939 310.5 175.676 310.604 175.397 311.401C175.134 312.153 174.941 313.307 174.797 314.87C174.557 317.474 174.462 321.09 174.343 325.603C174.32 326.489 174.296 327.409 174.269 328.363C173.948 339.973 173.305 356.458 170.025 375.916C167.637 390.083 164.022 431.846 168.978 463.259C171.466 479.025 171.798 488.976 171.504 495C171.356 498.012 171.052 500.045 170.781 501.333C170.677 501.827 170.578 502.211 170.494 502.5H191.31Z" fill="white" stroke="black"/>
    <path d="M174.481 502.5H184.906C184.909 502.349 184.913 502.163 184.918 501.942C184.933 501.249 184.951 500.212 184.968 498.84C185 496.096 185.023 492.013 184.984 486.659C184.905 475.95 184.579 460.156 183.588 439.818C183.023 428.24 182.481 413.266 181.921 397.771C181.496 386.04 181.061 374.01 180.597 362.931C180.058 350.068 179.481 338.484 178.836 330.117C178.514 325.932 178.176 322.563 177.819 320.246C177.64 319.083 177.46 318.206 177.28 317.628C177.244 317.51 177.209 317.409 177.176 317.324C177.136 317.455 177.095 317.622 177.056 317.829C176.914 318.579 176.812 319.714 176.737 321.227C176.611 323.752 176.561 327.253 176.499 331.613C176.486 332.468 176.474 333.357 176.46 334.277C176.292 345.49 175.955 361.405 174.239 380.189C172.988 393.888 171.094 434.26 173.691 464.639C174.993 479.861 175.166 489.46 175.012 495.261C174.935 498.161 174.776 500.114 174.636 501.347C174.579 501.842 174.526 502.222 174.481 502.5ZM176.999 316.984C176.998 316.984 177.001 316.988 177.007 316.992C177.001 316.986 176.999 316.983 176.999 316.984ZM177.315 316.995C177.32 316.991 177.322 316.988 177.322 316.987C177.322 316.987 177.319 316.989 177.315 316.995Z" fill="white" stroke="black"/>
    <path d="M172.939 452.573L174.311 450.661L176.081 453.114L178.175 450.661L180.269 453.114L182.363 450.661L183.934 452.297" stroke="black"/>
    <path d="M175.034 492.093L176.34 494.004L178.025 491.551L180.02 494.004L182.014 491.551L184.009 494.004L185.504 492.369" stroke="black"/>
    <path d="M174.51 377.059H174.901L176.081 374.606L177.477 377.059L178.873 374.606L180.269 377.059L181.316 375.424" stroke="black"/>
    <path d="M176.081 363.975H176.082L176.852 361.521L177.763 363.975L178.674 361.521L179.586 363.975L180.269 362.339" stroke="black"/>
    <path d="M177.147 348.722L178.718 346.268L179.466 348.722L179.765 347.086" stroke="black"/>
    <path d="M173.463 388.509L174.115 389.326L175.632 386.873L177.427 389.326L179.222 386.873L181.017 389.326L181.316 388.509" stroke="black"/>
    <path d="M172.939 398.046L174.115 399.958L175.632 397.504L177.427 399.958L179.222 397.504L181.017 399.958L181.84 399.14" stroke="black"/>
    <path d="M172.939 411.683L174.115 409.771L175.632 412.225L177.427 409.771L179.222 412.225L181.017 409.771L182.363 411.407" stroke="black"/>
    <path d="M172.939 426.669L174.115 428.58L175.632 426.127L177.427 428.58L179.222 426.127L181.017 428.58L182.363 426.945" stroke="black"/>
    <path d="M175.034 474.653L176.34 472.742L178.025 475.195L180.02 472.742L182.014 475.195L184.009 472.742L184.981 473.559" stroke="black"/>
    <path d="M173.987 465.105L175.293 467.017L176.978 464.564L178.973 467.017L180.967 464.564L182.962 467.017L184.458 465.381" stroke="black"/>
    <path d="M172.939 438.67L174.245 436.759L175.931 439.212L177.926 436.759L179.92 439.212L181.914 436.759L183.41 438.394" stroke="black"/>
    <path d="M207.86 502.5H194.62C194.616 502.398 194.612 502.281 194.608 502.147C194.589 501.594 194.566 500.766 194.546 499.671C194.505 497.481 194.477 494.221 194.526 489.945C194.624 481.392 195.031 468.776 196.269 452.53C196.974 443.277 197.651 431.305 198.351 418.919C198.881 409.545 199.425 399.934 200.004 391.085C200.677 380.807 201.398 371.555 202.201 364.877C202.604 361.534 203.025 358.854 203.467 357.015C203.689 356.092 203.91 355.409 204.124 354.967C204.232 354.744 204.325 354.611 204.395 354.539C204.403 354.53 204.411 354.523 204.418 354.517C204.425 354.525 204.434 354.535 204.445 354.549C204.514 354.637 204.599 354.806 204.685 355.096C204.855 355.67 204.981 356.556 205.075 357.763C205.232 359.772 205.294 362.562 205.372 366.046C205.387 366.73 205.403 367.441 205.42 368.178C205.63 377.141 206.051 389.87 208.196 404.895C209.757 415.83 212.12 448.067 208.88 472.313C207.253 484.487 207.036 492.172 207.228 496.826C207.325 499.153 207.524 500.724 207.702 501.721C207.758 502.036 207.812 502.294 207.86 502.5ZM204.45 354.493C204.45 354.493 204.449 354.493 204.448 354.494C204.449 354.493 204.45 354.493 204.45 354.493ZM204.396 354.498C204.393 354.497 204.391 354.496 204.391 354.496C204.391 354.495 204.393 354.496 204.396 354.498Z" fill="white" stroke="black"/>
    <path d="M205.266 502.5H198.809C198.808 502.407 198.806 502.302 198.804 502.183C198.794 501.647 198.782 500.847 198.771 499.788C198.75 497.67 198.735 494.518 198.761 490.385C198.812 482.118 199.025 469.925 199.673 454.224C200.042 445.286 200.397 433.725 200.763 421.762C201.041 412.705 201.325 403.419 201.629 394.865C201.981 384.935 202.359 375.992 202.78 369.534C202.991 366.303 203.212 363.703 203.445 361.916C203.517 361.365 203.589 360.898 203.661 360.517C203.722 361.063 203.769 361.782 203.807 362.67C203.889 364.618 203.922 367.32 203.962 370.686C203.97 371.346 203.979 372.032 203.988 372.743C204.098 381.4 204.318 393.688 205.44 408.191C206.258 418.766 207.496 449.931 205.798 473.381C204.947 485.134 204.834 492.546 204.934 497.026C204.985 499.266 205.088 500.775 205.181 501.728C205.211 502.044 205.24 502.299 205.266 502.5Z" fill="white" stroke="black"/>
    <path d="M206.462 464.069L205.566 462.593L204.409 464.487L203.039 462.593L201.67 464.487L200.301 462.593L199.274 463.856" stroke="black"/>
    <path d="M205.093 494.579L204.239 496.055L203.137 494.161L201.833 496.055L200.529 494.161L199.225 496.055L198.247 494.792" stroke="black"/>
    <path d="M205.436 405.771H205.18L204.409 403.877L203.496 405.771L202.583 403.877L201.67 405.771L200.985 404.508" stroke="black"/>
    <path d="M204.409 395.669H204.408L203.904 393.775L203.309 395.669L202.713 393.775L202.117 395.669L201.67 394.407" stroke="black"/>
    <path d="M203.711 383.894L202.684 382L202.195 383.894L202 382.631" stroke="black"/>
    <path d="M206.12 414.61L205.694 415.241L204.702 413.347L203.528 415.241L202.355 413.347L201.181 415.241L200.985 414.61" stroke="black"/>
    <path d="M206.462 421.973L205.694 423.449L204.702 421.555L203.528 423.449L202.355 421.555L201.181 423.449L200.643 422.818" stroke="black"/>
    <path d="M206.462 432.501L205.694 431.025L204.702 432.919L203.528 431.025L202.355 432.919L201.181 431.025L200.301 432.288" stroke="black"/>
    <path d="M206.462 444.071L205.694 445.547L204.702 443.653L203.528 445.547L202.355 443.653L201.181 445.547L200.301 444.284" stroke="black"/>
    <path d="M205.093 481.116L204.239 479.64L203.137 481.534L201.833 479.64L200.529 481.534L199.225 479.64L198.589 480.271" stroke="black"/>
    <path d="M205.778 473.744L204.924 475.22L203.822 473.326L202.518 475.22L201.214 473.326L199.91 475.22L198.932 473.958" stroke="black"/>
    <path d="M206.462 453.336L205.609 451.86L204.506 453.754L203.202 451.86L201.898 453.754L200.594 451.86L199.616 453.123" stroke="black"/>
    <path d="M148.292 502.119C148.257 502.261 148.223 502.388 148.191 502.5H161.386C161.388 502.458 161.39 502.413 161.393 502.365C161.411 501.962 161.434 501.358 161.454 500.559C161.495 498.96 161.523 496.578 161.474 493.453C161.376 487.203 160.969 477.98 159.733 466.103C159.028 459.333 158.35 450.568 157.649 441.503C157.119 434.645 156.576 427.616 155.997 421.15C155.324 413.632 154.604 406.871 153.802 401.994C153.4 399.552 152.981 397.605 152.544 396.277C152.325 395.609 152.11 395.128 151.909 394.824C151.808 394.673 151.725 394.585 151.663 394.539C151.634 394.517 151.614 394.507 151.603 394.503C151.598 394.501 151.594 394.501 151.593 394.5L151.591 394.5C151.59 394.5 151.59 394.5 151.589 394.5C151.575 394.499 151.457 394.494 151.299 394.885C151.141 395.277 151.017 395.899 150.924 396.777C150.768 398.238 150.706 400.267 150.628 402.817C150.613 403.317 150.597 403.838 150.58 404.379C150.37 410.94 149.948 420.267 147.8 431.276C146.242 439.259 143.883 462.811 147.116 480.51C148.745 489.427 148.965 495.069 148.771 498.496C148.674 500.211 148.473 501.374 148.292 502.119Z" fill="white" stroke="black"/>
    <path d="M150.76 502.5H157.194C157.195 502.467 157.196 502.433 157.197 502.397C157.206 502.006 157.218 501.421 157.229 500.647C157.25 499.099 157.265 496.795 157.239 493.773C157.188 487.729 156.975 478.813 156.327 467.332C155.958 460.792 155.603 452.331 155.237 443.577C154.959 436.952 154.675 430.159 154.371 423.906C154.019 416.642 153.642 410.104 153.221 405.384C153.01 403.022 152.79 401.129 152.559 399.831C152.484 399.414 152.411 399.068 152.338 398.792C152.278 399.181 152.231 399.701 152.193 400.356C152.111 401.775 152.078 403.746 152.038 406.209C152.03 406.692 152.021 407.195 152.012 407.715C151.902 414.05 151.682 423.048 150.559 433.667C149.742 441.394 148.505 464.176 150.201 481.31C151.053 489.914 151.167 495.347 151.066 498.637C151.015 500.282 150.911 501.394 150.817 502.1C150.797 502.251 150.778 502.384 150.76 502.5ZM152.084 398.11C152.084 398.11 152.085 398.112 152.088 398.116C152.085 398.112 152.084 398.11 152.084 398.11Z" fill="white" stroke="black"/>
    <path d="M149.538 474.52L150.434 473.441L151.591 474.826L152.961 473.441L154.33 474.826L155.699 473.441L156.726 474.364" stroke="black"/>
    <path d="M150.907 496.84L151.761 497.92L152.863 496.534L154.167 497.92L155.471 496.534L156.775 497.92L157.753 496.996" stroke="black"/>
    <path d="M150.564 431.873H150.82L151.591 430.487L152.504 431.873L153.417 430.487L154.33 431.873L155.015 430.949" stroke="black"/>
    <path d="M151.591 424.483H151.592L152.096 423.097L152.691 424.483L153.287 423.097L153.883 424.483L154.33 423.559" stroke="black"/>
    <path d="M152.289 415.869L153.316 414.483L153.805 415.869L154 414.945" stroke="black"/>
    <path d="M149.88 438.339L150.306 438.801L151.298 437.415L152.472 438.801L153.645 437.415L154.819 438.801L155.015 438.339" stroke="black"/>
    <path d="M149.538 443.725L150.306 444.805L151.298 443.419L152.472 444.805L153.645 443.419L154.819 444.805L155.357 444.343" stroke="black"/>
    <path d="M149.538 451.427L150.306 450.347L151.298 451.733L152.472 450.347L153.645 451.733L154.819 450.347L155.699 451.271" stroke="black"/>
    <path d="M149.538 459.891L150.306 460.97L151.298 459.585L152.472 460.97L153.645 459.585L154.819 460.97L155.699 460.047" stroke="black"/>
    <path d="M150.907 486.991L151.761 485.911L152.863 487.297L154.167 485.911L155.471 487.297L156.775 485.911L157.411 486.373" stroke="black"/>
    <path d="M150.222 481.598L151.076 482.678L152.178 481.292L153.482 482.678L154.786 481.292L156.09 482.678L157.068 481.754" stroke="black"/>
    <path d="M149.538 466.669L150.391 465.589L151.494 466.975L152.798 465.589L154.102 466.975L155.406 465.589L156.384 466.513" stroke="black"/>
    <path d="M143 499H211V553C211 557.971 206.971 562 202 562H152C147.029 562 143 557.971 143 553V499Z" fill="white" stroke="black" stroke-width="2"/>
    <path d="M154 506L164 527L154 517.5L144 527L154 506Z" fill="black"/>
    <path d="M193 506L203 527L193 517.5L183 527L193 506Z" fill="black"/>
    <path d="M174 506L184 527L174 517.5L164 527L174 506Z" fill="black"/>
    <path d="M211.5 509V518L203 526.5L211.5 509Z" fill="black"/>
    <path d="M201.5 534L191.5 555L201.5 545.5L211.5 555L201.5 534Z" fill="black"/>
    <path d="M144 537.5V546.5L152.5 555L144 537.5Z" fill="black"/>
    <path d="M162.5 534L152.5 555L162.5 545.5L172.5 555L162.5 534Z" fill="black"/>
    <path d="M181.5 534L171.5 555L181.5 545.5L191.5 555L181.5 534Z" fill="black"/>
</svg>
    